<?xml version="1.0" encoding="UTF-8"?>
<svg xmlns="http://www.w3.org/2000/svg" xmlns:xlink="http://www.w3.org/1999/xlink" viewBox="0 0 50 50" width="50px" height="50px">
<g id="surface139006241">
<path style=" stroke:none;fill-rule:nonzero;fill:rgb(87.450981%,12.54902%,12.54902%);fill-opacity:1;" d="M 44 14.214844 C 42.953125 15.777344 41.632812 17.148438 40.109375 18.25 C 40.121094 18.585938 40.128906 18.921875 40.128906 19.257812 C 40.128906 29.558594 32.289062 41.4375 17.949219 41.4375 C 13.546875 41.4375 7.808594 39.898438 6 37.9375 C 6.609375 38.011719 7.230469 38.046875 7.859375 38.046875 C 11.515625 38.046875 14.875 36.800781 17.542969 34.710938 C 14.132812 34.644531 11.253906 32.390625 10.257812 29.292969 C 11.8125 29.539062 13.78125 29.160156 13.78125 29.160156 C 13.78125 29.160156 7.683594 28.113281 7.527344 21.417969 C 9.289062 22.441406 11.058594 22.394531 11.058594 22.394531 C 11.058594 22.394531 7.539062 20.230469 7.589844 15.90625 C 7.617188 13.355469 8.644531 11.984375 8.644531 11.984375 C 15.304688 20.1875 24.714844 20.132812 24.714844 20.132812 C 24.714844 20.132812 24.511719 18.964844 24.511719 18.355469 C 24.511719 14.050781 28 10.558594 32.308594 10.558594 C 34.550781 10.558594 36.574219 11.507812 37.996094 13.023438 C 39.773438 12.671875 41.441406 12.023438 42.949219 11.128906 C 42.269531 13.851562 39.519531 15.441406 39.519531 15.441406 C 39.519531 15.441406 41.871094 15.183594 44 14.214844 Z M 44 14.214844 "/>
</g>
</svg>
